<svg id="レイヤー_1" data-name="レイヤー 1" xmlns="http://www.w3.org/2000/svg" width="507.42" height="91.37" viewBox="0 0 507.42 91.37"><path d="M24.91,15.82l.27.23c0-.1,0-.2,0-.3a9.46,9.46,0,1,0-9.46,9.46c.1,0,.2,0,.3,0l-.23-.27a6.45,6.45,0,0,1,9.09-9.09Z" style="fill:#e53e3a"/><path d="M15.75,31.51a15.48,15.48,0,0,0,4.9-.8L18.43,28a12.67,12.67,0,0,1-2.68.32A12.79,12.79,0,1,1,28,18.42l2.69,2.25a16,16,0,0,0,.78-4.92A15.76,15.76,0,1,0,15.75,31.51Z" style="fill:#1c2434"/><path d="M75.33,25.18c.09,0,.19,0,.29,0a9.46,9.46,0,1,0-9.45-9.46c0,.1,0,.2,0,.3l.27-.23a6.45,6.45,0,0,1,9.09,9.09Z" style="fill:#e53e3a"/><path d="M28,73A12.59,12.59,0,1,1,15.75,63a13.36,13.36,0,0,1,2.68.32l2.22-2.67a15.48,15.48,0,0,0-4.9-.8A15.76,15.76,0,1,0,31.51,75.62a15.53,15.53,0,0,0-.8-4.9Z" style="fill:#1c2434"/><path d="M63.33,18.43A13.36,13.36,0,0,1,63,15.75a12.66,12.66,0,1,1,9.92,12.31l-2.21,2.65a15.53,15.53,0,0,0,4.9.8A15.76,15.76,0,1,0,59.86,15.75a15.48,15.48,0,0,0,.8,4.9Z" style="fill:#1c2434"/><path d="M70.6,77.06a6.45,6.45,0,0,1-4.14-1.51l-.27-.23c0,.1,0,.2,0,.3a9.45,9.45,0,1,0,9.45-9.45l-.3,0,.23.27a6.46,6.46,0,0,1-5,10.6Z" style="fill:#e53e3a"/><path d="M72.93,72.93a3.29,3.29,0,0,0,.2-4.45L64.26,57.84a19,19,0,0,1,0-24.31l8.87-10.64a3.3,3.3,0,0,0-4.65-4.65L57.84,27.11a19,19,0,0,1-24.31,0L22.89,18.24a3.3,3.3,0,0,0-4.65,4.65l8.87,10.64a19,19,0,0,1,0,24.31L18.24,68.48a3.3,3.3,0,0,0,4.65,4.65l10.64-8.87a19,19,0,0,1,24.31,0l10.64,8.87A3.29,3.29,0,0,0,72.93,72.93ZM45.69,53.56a7.88,7.88,0,1,1,7.87-7.87A7.88,7.88,0,0,1,45.69,53.56Z" style="fill:#1c2434"/><path d="M75.62,59.86a15.53,15.53,0,0,0-4.9.8L73,63.33A13.17,13.17,0,0,1,75.62,63,12.61,12.61,0,1,1,63,75.62,13.17,13.17,0,0,1,63.33,73l-2.67-2.23a15.53,15.53,0,0,0-.8,4.9A15.76,15.76,0,1,0,75.62,59.86Z" style="fill:#1c2434"/><circle cx="45.69" cy="45.69" r="4.73" style="fill:#e53e3a"/><path d="M16.05,66.19l-.3,0a9.45,9.45,0,1,0,9.46,9.45c0-.1,0-.2,0-.3l-.27.23a6.45,6.45,0,0,1-9.09-9.09Z" style="fill:#e53e3a"/><polygon points="142.17 70.68 142.17 28.4 129.05 28.4 129.05 20.96 162.72 20.96 162.72 28.4 149.61 28.4 149.61 70.68 142.17 70.68" style="fill:#1c2434"/><polygon points="143.03 69.83 143.03 27.54 129.91 27.54 129.91 21.82 161.87 21.82 161.87 27.54 148.75 27.54 148.75 69.83 143.03 69.83" style="fill:#1c2434"/><polygon points="143.88 68.97 143.88 26.68 130.77 26.68 130.77 22.68 161.01 22.68 161.01 26.68 147.89 26.68 147.89 68.97 143.88 68.97" style="fill:#1c2434"/><path d="M131.62,23.53h28.53v2.3H147V68.11h-2.29V25.83H131.62Z" style="fill:#1c2434"/><path d="M194.09,71.48c-14.79,0-26-11.07-26-25.75S179.3,20,194.09,20,220,31.05,220,45.73,208.88,71.48,194.09,71.48Zm0-44.19a18.07,18.07,0,0,0-18.51,18.44,18.51,18.51,0,0,0,37,0A18.07,18.07,0,0,0,194.09,27.29Z" style="fill:#1c2434"/><path d="M194.09,70.63c-14.3,0-25.16-10.71-25.16-24.9s10.86-24.89,25.16-24.89,25.09,10.7,25.09,24.89S208.39,70.63,194.09,70.63Zm0-44.2a18.91,18.91,0,0,0-19.36,19.3,19.37,19.37,0,0,0,38.73,0A18.91,18.91,0,0,0,194.09,26.43Z" style="fill:#1c2434"/><path d="M194.09,69.77c-13.81,0-24.23-10.34-24.23-24s10.42-24,24.23-24,24.23,10.34,24.23,24S207.9,69.77,194.09,69.77Zm0-44.2a19.75,19.75,0,0,0-20.22,20.16,20.22,20.22,0,0,0,40.44,0A19.75,19.75,0,0,0,194.09,25.57Z" style="fill:#1c2434"/><path d="M217.46,45.73c0,12.87-9.8,23.18-23.37,23.18S170.72,58.6,170.72,45.73s9.81-23.18,23.37-23.18S217.46,32.87,217.46,45.73Zm-2.29,0a21.08,21.08,0,0,0-42.16,0,21.08,21.08,0,0,0,42.16,0Z" style="fill:#1c2434"/><path d="M270.56,70.68V48.78L254.54,62l-16-13.17v21.9h-7.43V33L254.54,52.3,278,33V70.68ZM232.1,25.57,236.89,20l17.65,14.46L272.18,20,277,25.57,254.54,44.13Z" style="fill:#1c2434"/><path d="M271.42,69.83V47L254.54,60.84,237.66,47V69.83h-5.73v-35l22.61,18.61,22.6-18.61v35Zm-38.1-44.36L237,21.14l17.54,14.38,17.53-14.38,3.68,4.33L254.54,43Z" style="fill:#1c2434"/><path d="M272.27,69V45.15L254.54,59.73,236.8,45.15V69h-4V36.62l21.75,17.9,21.74-17.9V69ZM234.53,25.36l2.58-3,17.43,14.29L272,22.34l2.58,3-20,16.54Z" style="fill:#1c2434"/><path d="M254.54,58.62l-18.6-15.28V68.11h-2.29V38.44l20.89,17.19,20.88-17.19V68.11h-2.29V43.34ZM235.75,25.25l1.46-1.72,17.33,14.21,17.32-14.21,1.46,1.72L254.54,40.79Z" style="fill:#1c2434"/><rect x="293.46" y="20.96" width="7.44" height="49.72" style="fill:#1c2434"/><rect x="294.32" y="21.82" width="5.72" height="48.01" style="fill:#1c2434"/><rect x="295.17" y="22.68" width="4.01" height="46.29" style="fill:#1c2434"/><path d="M296,23.53h2.29V68.11H296Z" style="fill:#1c2434"/><path d="M330.9,70.68V49.17h7.44V70.68ZM312.6,25.45l7.24-5.56,14.78,13.36,14.75-13.33,5,5.43-19.75,18Z" style="fill:#1c2434"/><path d="M331.76,69.83V50h5.72v19.8ZM316.1,25.38l3.8-4.28,14.72,13.31,14.69-13.28,3.85,4.16L334.62,42.22Z" style="fill:#1c2434"/><path d="M332.62,69V50.89h4V69ZM317.31,25.32l2.66-3,14.65,13.24,14.64-13.23L352,25.24,334.62,41.06Z" style="fill:#1c2434"/><path d="M318.51,25.25,320,23.53l14.58,13.19L349.2,23.53l1.53,1.66L334.62,39.9Zm15,26.5h2.3V68.11h-2.3Z" style="fill:#1c2434"/><path d="M358.46,68.72l.76-12.48h32l5.07,12.48-6.88,2.71-3.17-7.75H364.16l-3.11,7.76ZM362,49.54,373.14,21h4.15l11.18,28.58Zm15.64-7.43-2.38-6.26-2.38,6.26Z" style="fill:#1c2434"/><path d="M355.27,68.24,359.8,57.1h30.84l4.52,11.14-5.29,2.09-3.07-7.51H363.58l-3,7.51Zm8-19.56,10.51-26.86h3l10.51,26.86ZM378.84,43l-3.62-9.52L371.59,43Z" style="fill:#1c2434"/><path d="M356.39,67.76l4-9.8h29.68l4,9.8-3.69,1.46-3-7.26H363l-2.91,7.26Zm8.08-19.93,9.84-25.15h1.81L386,47.83Zm15.62-4L375.22,31l-4.87,12.78Z" style="fill:#1c2434"/><path d="M389.48,58.81l3.44,8.47-2.1.83-2.87-7H362.42l-2.8,7-2.11-.83L361,58.81ZM375.54,23.53,384.71,47h-19l9.17-23.44ZM369.1,44.68h12.23l-6.11-16Z" style="fill:#1c2434"/><path d="M355.15,68.64l5.07-12.48h32l5.07,12.48-6.88,2.71-3.17-7.76H365.16l-3.11,7.76ZM363,49.45l11.18-28.57h4.15l11.18,28.57ZM378.6,42l-2.38-6.25L373.84,42Z" style="fill:#1c2434"/><path d="M447.26,70.68V48.78L431.24,62l-16-13.17v21.9h-7.43V33L431.24,52.3,454.69,33V70.68ZM408.8,25.57,413.59,20l17.65,14.46L448.88,20l4.79,5.62L431.24,44.13Z" style="fill:#1c2434"/><path d="M448.12,69.83V47L431.24,60.84,414.35,47V69.83h-5.72v-35l22.61,18.61,22.6-18.61v35ZM410,25.47l3.68-4.33,17.54,14.38,17.53-14.38,3.68,4.33L431.24,43Z" style="fill:#1c2434"/><path d="M449,69V45.15L431.24,59.73,413.5,45.15V69h-4V36.62l21.75,17.9L453,36.62V69ZM411.23,25.36l2.58-3,17.43,14.29,17.42-14.29,2.58,3-20,16.54Z" style="fill:#1c2434"/><path d="M432.24,58.62l-18.6-15.28V68.11h-2.29V38.44l20.89,17.19,20.88-17.19V68.11h-2.29V43.34ZM413.45,25.25l1.46-1.72,17.33,14.21,17.32-14.21L451,25.25,432.24,40.79Z" style="fill:#1c2434"/><path d="M465.3,68.72l5.06-12.48h32l5.06,12.48-6.88,2.71-3.17-7.75H475.3l-3.1,7.76Zm7.8-19.18L484.29,21h4.14l11.19,28.58Zm15.64-7.43-2.38-6.26L484,42.11Z" style="fill:#1c2434"/><path d="M466.42,68.24l4.52-11.14h30.84l4.52,11.14L501,70.33l-3.08-7.51H474.72l-3,7.51Zm7.94-19.56,10.51-26.86h3l10.51,26.86ZM490,43l-3.62-9.52L482.73,43Z" style="fill:#1c2434"/><path d="M467.54,67.76l4-9.8H501.2l4,9.8-3.69,1.46-3-7.26H474.14l-2.9,7.26Zm8.08-19.93,9.84-25.15h1.8l9.84,25.15Zm15.61-4L486.36,31l-4.87,12.78Z" style="fill:#1c2434"/><path d="M501.62,58.81l3.44,8.47-2.1.83-2.86-7H474.56l-2.8,7-2.1-.83,3.44-8.47ZM487.68,23.53,496.85,47h-19L487,23.53Zm-6.43,21.15h12.22l-6.11-16Z" style="fill:#1c2434"/></svg>