<svg id="レイヤー_1" data-name="レイヤー 1" xmlns="http://www.w3.org/2000/svg" width="91.37" height="91.37" viewBox="0 0 91.37 91.37"><path d="M24.91,15.82l.27.23c0-.1,0-.2,0-.3a9.46,9.46,0,1,0-9.46,9.46c.1,0,.2,0,.3,0l-.23-.27a6.45,6.45,0,0,1,9.09-9.09Z" style="fill:#e53e3a"/><path d="M15.75,31.51a15.48,15.48,0,0,0,4.9-.8L18.43,28a12.67,12.67,0,0,1-2.68.32A12.79,12.79,0,1,1,28,18.42l2.69,2.25a16,16,0,0,0,.78-4.92A15.76,15.76,0,1,0,15.75,31.51Z" style="fill:#1c2434"/><path d="M75.33,25.18c.09,0,.19,0,.29,0a9.46,9.46,0,1,0-9.45-9.46c0,.1,0,.2,0,.3l.27-.23a6.45,6.45,0,0,1,9.09,9.09Z" style="fill:#e53e3a"/><path d="M28,73A12.59,12.59,0,1,1,15.75,63a13.36,13.36,0,0,1,2.68.32l2.22-2.67a15.48,15.48,0,0,0-4.9-.8A15.76,15.76,0,1,0,31.51,75.62a15.53,15.53,0,0,0-.8-4.9Z" style="fill:#1c2434"/><path d="M63.33,18.43A13.36,13.36,0,0,1,63,15.75a12.66,12.66,0,1,1,9.92,12.31l-2.21,2.65a15.53,15.53,0,0,0,4.9.8A15.76,15.76,0,1,0,59.86,15.75a15.48,15.48,0,0,0,.8,4.9Z" style="fill:#1c2434"/><path d="M70.6,77.06a6.45,6.45,0,0,1-4.14-1.51l-.27-.23c0,.1,0,.2,0,.3a9.45,9.45,0,1,0,9.45-9.45l-.3,0,.23.27a6.46,6.46,0,0,1-5,10.6Z" style="fill:#e53e3a"/><path d="M72.93,72.93a3.29,3.29,0,0,0,.2-4.45L64.26,57.84a19,19,0,0,1,0-24.31l8.87-10.64a3.3,3.3,0,0,0-4.65-4.65L57.84,27.11a19,19,0,0,1-24.31,0L22.89,18.24a3.3,3.3,0,0,0-4.65,4.65l8.87,10.64a19,19,0,0,1,0,24.31L18.24,68.48a3.3,3.3,0,0,0,4.65,4.65l10.64-8.87a19,19,0,0,1,24.31,0l10.64,8.87A3.29,3.29,0,0,0,72.93,72.93ZM45.69,53.56a7.88,7.88,0,1,1,7.87-7.87A7.88,7.88,0,0,1,45.69,53.56Z" style="fill:#1c2434"/><path d="M75.62,59.86a15.53,15.53,0,0,0-4.9.8L73,63.33A13.17,13.17,0,0,1,75.62,63,12.61,12.61,0,1,1,63,75.62,13.17,13.17,0,0,1,63.33,73l-2.67-2.23a15.53,15.53,0,0,0-.8,4.9A15.76,15.76,0,1,0,75.62,59.86Z" style="fill:#1c2434"/><circle cx="45.69" cy="45.69" r="4.73" style="fill:#e53e3a"/><path d="M16.05,66.19l-.3,0a9.45,9.45,0,1,0,9.46,9.45c0-.1,0-.2,0-.3l-.27.23a6.45,6.45,0,0,1-9.09-9.09Z" style="fill:#e53e3a"/></svg>