<svg data-name="レイヤー 1" xmlns="http://www.w3.org/2000/svg" width="507.42" height="91.37"><path d="M24.91 15.82l.27.23v-.3a9.46 9.46 0 1 0-9.46 9.46h.3l-.23-.27a6.45 6.45 0 0 1 9.09-9.09z" fill="#e53e3a"/><path d="M15.75 31.51a15.48 15.48 0 0 0 4.9-.8L18.43 28a12.67 12.67 0 0 1-2.68.32A12.79 12.79 0 1 1 28 18.42l2.69 2.25a16 16 0 0 0 .78-4.92 15.76 15.76 0 1 0-15.72 15.76z" fill="#1c2434"/><path d="M75.33 25.18h.29a9.46 9.46 0 1 0-9.45-9.46v.3l.27-.23a6.45 6.45 0 0 1 9.09 9.09z" fill="#e53e3a"/><path d="M28 73a12.59 12.59 0 1 1-12.25-10 13.36 13.36 0 0 1 2.68.32l2.22-2.67a15.48 15.48 0 0 0-4.9-.8 15.76 15.76 0 1 0 15.76 15.77 15.53 15.53 0 0 0-.8-4.9zm35.33-54.57a13.36 13.36 0 0 1-.33-2.68 12.66 12.66 0 1 1 9.92 12.31l-2.21 2.65a15.53 15.53 0 0 0 4.9.8 15.76 15.76 0 1 0-15.75-15.76 15.48 15.48 0 0 0 .8 4.9z" fill="#1c2434"/><path d="M70.6 77.06a6.45 6.45 0 0 1-4.14-1.51l-.27-.23v.3a9.45 9.45 0 1 0 9.45-9.45h-.3l.23.27a6.46 6.46 0 0 1-5 10.6z" fill="#e53e3a"/><path d="M72.93 72.93a3.29 3.29 0 0 0 .2-4.45l-8.87-10.64a19 19 0 0 1 0-24.31l8.87-10.64a3.3 3.3 0 0 0-4.65-4.65l-10.64 8.87a19 19 0 0 1-24.31 0l-10.64-8.87a3.3 3.3 0 0 0-4.65 4.65l8.87 10.64a19 19 0 0 1 0 24.31l-8.87 10.64a3.3 3.3 0 0 0 4.65 4.65l10.64-8.87a19 19 0 0 1 24.31 0l10.64 8.87a3.29 3.29 0 0 0 4.45-.2zM45.69 53.56a7.88 7.88 0 1 1 7.87-7.87 7.88 7.88 0 0 1-7.87 7.87z" fill="#1c2434"/><path d="M75.62 59.86a15.53 15.53 0 0 0-4.9.8L73 63.33a13.17 13.17 0 0 1 2.62-.33A12.61 12.61 0 1 1 63 75.62a13.17 13.17 0 0 1 .33-2.62l-2.67-2.23a15.53 15.53 0 0 0-.8 4.9 15.76 15.76 0 1 0 15.76-15.81z" fill="#1c2434"/><circle cx="45.69" cy="45.69" r="4.73" fill="#e53e3a"/><path d="M16.05 66.19h-.3a9.45 9.45 0 1 0 9.46 9.45v-.3l-.27.23a6.45 6.45 0 0 1-9.09-9.09z" fill="#e53e3a"/><path fill="#1c2434" d="M142.17 70.68V28.4h-13.12v-7.44h33.67v7.44h-13.11v42.28h-7.44z"/><path fill="#1c2434" d="M143.03 69.83V27.54h-13.12v-5.72h31.96v5.72h-13.12v42.29h-5.72z"/><path fill="#1c2434" d="M143.88 68.97V26.68h-13.11v-4h30.24v4h-13.12v42.29h-4.01z"/><path d="M131.62 23.53h28.53v2.3H147v42.28h-2.29V25.83h-13.09zm62.47 47.95c-14.79 0-26-11.07-26-25.75S179.3 20 194.09 20 220 31.05 220 45.73s-11.12 25.75-25.91 25.75zm0-44.19a18.07 18.07 0 0 0-18.51 18.44 18.51 18.51 0 0 0 37 0 18.07 18.07 0 0 0-18.49-18.44z" fill="#1c2434"/><path d="M194.09 70.63c-14.3 0-25.16-10.71-25.16-24.9s10.86-24.89 25.16-24.89 25.09 10.7 25.09 24.89-10.79 24.9-25.09 24.9zm0-44.2a18.91 18.91 0 0 0-19.36 19.3 19.37 19.37 0 0 0 38.73 0 18.91 18.91 0 0 0-19.37-19.3z" fill="#1c2434"/><path d="M194.09 69.77c-13.81 0-24.23-10.34-24.23-24s10.42-24 24.23-24 24.23 10.34 24.23 24-10.42 24-24.23 24zm0-44.2a19.75 19.75 0 0 0-20.22 20.16 20.22 20.22 0 0 0 40.44 0 19.75 19.75 0 0 0-20.22-20.16z" fill="#1c2434"/><path d="M217.46 45.73c0 12.87-9.8 23.18-23.37 23.18s-23.37-10.31-23.37-23.18 9.81-23.18 23.37-23.18 23.37 10.32 23.37 23.18zm-2.29 0a21.08 21.08 0 0 0-42.16 0 21.08 21.08 0 0 0 42.16 0zm55.39 24.95v-21.9L254.54 62l-16-13.17v21.9h-7.43V33l23.43 19.3L278 33v37.68zM232.1 25.57l4.79-5.57 17.65 14.46L272.18 20l4.82 5.57-22.46 18.56z" fill="#1c2434"/><path d="M271.42 69.83V47l-16.88 13.84L237.66 47v22.83h-5.73v-35l22.61 18.61 22.6-18.61v35zm-38.1-44.36l3.68-4.33 17.54 14.38 17.53-14.38 3.68 4.33L254.54 43z" fill="#1c2434"/><path d="M272.27 69V45.15l-17.73 14.58-17.74-14.58V69h-4V36.62l21.75 17.9 21.74-17.9V69zm-37.74-43.64l2.58-3 17.43 14.29L272 22.34l2.58 3-20 16.54z" fill="#1c2434"/><path d="M254.54 58.62l-18.6-15.28v24.77h-2.29V38.44l20.89 17.19 20.88-17.19v29.67h-2.29V43.34zm-18.79-33.37l1.46-1.72 17.33 14.21 17.32-14.21 1.46 1.72-18.78 15.54zm57.71-4.29h7.44v49.72h-7.44z" fill="#1c2434"/><path fill="#1c2434" d="M294.32 21.82h5.72v48.01h-5.72z"/><path fill="#1c2434" d="M295.17 22.68h4.01v46.29h-4.01z"/><path d="M296 23.53h2.29v44.58H296zm34.9 47.15V49.17h7.44v21.51zm-18.3-45.23l7.24-5.56 14.78 13.36 14.75-13.33 5 5.43-19.75 18z" fill="#1c2434"/><path d="M331.76 69.83V50h5.72v19.8zM316.1 25.38l3.8-4.28 14.72 13.31 14.69-13.28 3.85 4.16-18.54 16.93z" fill="#1c2434"/><path d="M332.62 69V50.89h4V69zm-15.31-43.68l2.66-3 14.65 13.24 14.64-13.23 2.74 2.91-17.38 15.82z" fill="#1c2434"/><path d="M318.51 25.25l1.49-1.72 14.58 13.19 14.62-13.19 1.53 1.66-16.11 14.71zm15 26.5h2.3v16.36h-2.3zm24.95 16.97l.76-12.48h32l5.07 12.48-6.88 2.71-3.17-7.75h-22.08l-3.11 7.76zM362 49.54L373.14 21h4.15l11.18 28.58zm15.64-7.43l-2.38-6.26-2.38 6.26z" fill="#1c2434"/><path d="M355.27 68.24l4.53-11.14h30.84l4.52 11.14-5.29 2.09-3.07-7.51h-23.22l-3 7.51zm8-19.56l10.51-26.86h3l10.51 26.86zM378.84 43l-3.62-9.52-3.63 9.52z" fill="#1c2434"/><path d="M356.39 67.76l4-9.8h29.68l4 9.8-3.69 1.46-3-7.26H363l-2.91 7.26zm8.08-19.93l9.84-25.15h1.81L386 47.83zm15.62-4L375.22 31l-4.87 12.78z" fill="#1c2434"/><path d="M389.48 58.81l3.44 8.47-2.1.83-2.87-7h-25.53l-2.8 7-2.11-.83 3.49-8.47zm-13.94-35.28L384.71 47h-19l9.17-23.44zm-6.44 21.15h12.23l-6.11-16z" fill="#1c2434"/><path d="M355.15 68.64l5.07-12.48h32l5.07 12.48-6.88 2.71-3.17-7.76h-22.08l-3.11 7.76zM363 49.45l11.18-28.57h4.15l11.18 28.57zM378.6 42l-2.38-6.25-2.38 6.25zm68.66 28.68v-21.9L431.24 62l-16-13.17v21.9h-7.43V33l23.43 19.3L454.69 33v37.68zM408.8 25.57l4.79-5.57 17.65 14.46L448.88 20l4.79 5.62-22.43 18.51z" fill="#1c2434"/><path d="M448.12 69.83V47l-16.88 13.84L414.35 47v22.83h-5.72v-35l22.61 18.61 22.6-18.61v35zM410 25.47l3.68-4.33 17.54 14.38 17.53-14.38 3.68 4.33L431.24 43z" fill="#1c2434"/><path d="M449 69V45.15l-17.76 14.58-17.74-14.58V69h-4V36.62l21.75 17.9L453 36.62V69zm-37.77-43.64l2.58-3 17.43 14.29 17.42-14.29 2.58 3-20 16.54z" fill="#1c2434"/><path d="M432.24 58.62l-18.6-15.28v24.77h-2.29V38.44l20.89 17.19 20.88-17.19v29.67h-2.29V43.34zm-18.79-33.37l1.46-1.72 17.33 14.21 17.32-14.21 1.44 1.72-18.76 15.54zm51.85 43.47l5.06-12.48h32l5.06 12.48-6.88 2.71-3.17-7.75H475.3l-3.1 7.76zm7.8-19.18L484.29 21h4.14l11.19 28.58zm15.64-7.43l-2.38-6.26-2.36 6.26z" fill="#1c2434"/><path d="M466.42 68.24l4.52-11.14h30.84l4.52 11.14-5.3 2.09-3.08-7.51h-23.2l-3 7.51zm7.94-19.56l10.51-26.86h3l10.51 26.86zM490 43l-3.62-9.52-3.65 9.52z" fill="#1c2434"/><path d="M467.54 67.76l4-9.8h29.66l4 9.8-3.69 1.46-3-7.26h-24.37l-2.9 7.26zm8.08-19.93l9.84-25.15h1.8l9.84 25.15zm15.61-4L486.36 31l-4.87 12.78z" fill="#1c2434"/><path d="M501.62 58.81l3.44 8.47-2.1.83-2.86-7h-25.54l-2.8 7-2.1-.83 3.44-8.47zm-13.94-35.28L496.85 47h-19L487 23.53zm-6.43 21.15h12.22l-6.11-16z" fill="#1c2434"/></svg>