<svg data-name="レイヤー 1" xmlns="http://www.w3.org/2000/svg" width="91.37" height="91.37"><path d="M24.91 15.82l.27.23v-.3a9.46 9.46 0 1 0-9.46 9.46h.3l-.23-.27a6.45 6.45 0 0 1 9.09-9.09z" fill="#e53e3a"/><path d="M15.75 31.51a15.48 15.48 0 0 0 4.9-.8L18.43 28a12.67 12.67 0 0 1-2.68.32A12.79 12.79 0 1 1 28 18.42l2.69 2.25a16 16 0 0 0 .78-4.92 15.76 15.76 0 1 0-15.72 15.76z" fill="#1c2434"/><path d="M75.33 25.18h.29a9.46 9.46 0 1 0-9.45-9.46v.3l.27-.23a6.45 6.45 0 0 1 9.09 9.09z" fill="#e53e3a"/><path d="M28 73a12.59 12.59 0 1 1-12.25-10 13.36 13.36 0 0 1 2.68.32l2.22-2.67a15.48 15.48 0 0 0-4.9-.8 15.76 15.76 0 1 0 15.76 15.77 15.53 15.53 0 0 0-.8-4.9zm35.33-54.57a13.36 13.36 0 0 1-.33-2.68 12.66 12.66 0 1 1 9.92 12.31l-2.21 2.65a15.53 15.53 0 0 0 4.9.8 15.76 15.76 0 1 0-15.75-15.76 15.48 15.48 0 0 0 .8 4.9z" fill="#1c2434"/><path d="M70.6 77.06a6.45 6.45 0 0 1-4.14-1.51l-.27-.23v.3a9.45 9.45 0 1 0 9.45-9.45h-.3l.23.27a6.46 6.46 0 0 1-5 10.6z" fill="#e53e3a"/><path d="M72.93 72.93a3.29 3.29 0 0 0 .2-4.45l-8.87-10.64a19 19 0 0 1 0-24.31l8.87-10.64a3.3 3.3 0 0 0-4.65-4.65l-10.64 8.87a19 19 0 0 1-24.31 0l-10.64-8.87a3.3 3.3 0 0 0-4.65 4.65l8.87 10.64a19 19 0 0 1 0 24.31l-8.87 10.64a3.3 3.3 0 0 0 4.65 4.65l10.64-8.87a19 19 0 0 1 24.31 0l10.64 8.87a3.29 3.29 0 0 0 4.45-.2zM45.69 53.56a7.88 7.88 0 1 1 7.87-7.87 7.88 7.88 0 0 1-7.87 7.87z" fill="#1c2434"/><path d="M75.62 59.86a15.53 15.53 0 0 0-4.9.8L73 63.33a13.17 13.17 0 0 1 2.62-.33A12.61 12.61 0 1 1 63 75.62a13.17 13.17 0 0 1 .33-2.62l-2.67-2.23a15.53 15.53 0 0 0-.8 4.9 15.76 15.76 0 1 0 15.76-15.81z" fill="#1c2434"/><circle cx="45.69" cy="45.69" r="4.73" fill="#e53e3a"/><path d="M16.05 66.19h-.3a9.45 9.45 0 1 0 9.46 9.45v-.3l-.27.23a6.45 6.45 0 0 1-9.09-9.09z" fill="#e53e3a"/></svg>